<?xml version="1.0" encoding="utf-8"?>
<!-- Generator: Adobe Illustrator 16.0.0, SVG Export Plug-In . SVG Version: 6.00 Build 0)  -->
<!DOCTYPE svg PUBLIC "-//W3C//DTD SVG 1.1//EN" "http://www.w3.org/Graphics/SVG/1.1/DTD/svg11.dtd">
<svg version="1.1" id="Layer_1" xmlns="http://www.w3.org/2000/svg" xmlns:xlink="http://www.w3.org/1999/xlink" x="0px" y="0px"
	 width="197.091px" height="46px" viewBox="0 0 197.091 46" enable-background="new 0 0 197.091 46" xml:space="preserve">
<g>
	<path fill="#CE2248" d="M53.498,0.44v33.126h-3.874V0.44H53.498z"/>
	<path fill="#CE2248" d="M72.067,16.828c-0.094-0.108-0.196-0.235-0.306-0.378c-0.11-0.144-0.243-0.307-0.399-0.487
		c-0.313-0.36-0.737-0.684-1.186-0.974c-0.534-0.245-1.301-0.356-2.304-0.356c-2.123,0-3.778,0.808-4.846,2.493
		c-1.145,1.769-1.642,3.716-1.642,5.845c0,0.035,0,0.063,0,0.081s0,0.046,0,0.081c0.01,1.635,0.538,3.349,1.666,4.9
		c1.051,1.551,2.7,2.326,4.822,2.326c2.288,0,3.661-0.683,4.547-1.867c1.113-1.589,1.372-2.985,1.875-4.98
		c0-0.034,0.007-0.063,0.023-0.082c0.015-0.018,0.024-0.044,0.024-0.08l3.806,0.201l-0.072,0.883
		c-0.071,0.672-0.114,1.172-0.264,1.846c-0.32,1.447-0.533,1.914-0.838,2.421c-1.342,2.229-1.455,2.345-2.985,3.715
		c-1.538,1.131-3.63,1.814-6.117,1.814c-2.957,0-5.417-1.099-7.372-3.058c-2.038-2.2-3.056-5.016-3.056-8.201
		c0-3.716,0.863-6.483,2.586-8.392c1.64-2.022,3.521-3.165,5.481-3.706c0.355-0.108,0.77-0.19,1.164-0.243
		c0.39-0.054,0.79-0.081,1.197-0.081c2.319,0,4.226,0.74,5.811,2.097c1.578,1.519,2.926,3.245,3.959,5.291l-13.775,8.525
		l-1.568-3.166L72.067,16.828z"/>
	<path fill="#CE2248" d="M79.508,14.675v-3.707c1.643,0.036,3.12,0.46,4.447,1.272c1.41,0.689,2.522,2.091,3.336,3.926
		c0.438-1.226,0.975-2.115,1.775-2.857c0.881-0.704,1.478-1.114,2.355-1.475c0.751-0.326,1.488-0.542,2.209-0.65
		c0.72-0.108,1.315-0.162,1.785-0.162v3.652c-1.66,0.139-3.141,0.861-4.441,2.087c-1.059,1.145-1.791,3.021-1.791,5.546
		c0,1.634,0.435,3.095,0.973,4.142c0.63,1.047,1.405,1.823,2.251,2.327c0.595,0.361,1.176,0.604,1.738,0.73
		c0.564,0.128,0.988,0.19,1.27,0.19v3.869c-1.724,0.037-3.157-0.286-4.3-0.974c-0.974-0.442-1.879-1.182-2.543-1.977
		c-0.313-0.359-0.58-0.722-0.716-1.081c-0.22-0.36-0.408-0.686-0.564-0.975c-0.814,1.876-1.927,3.229-3.336,3.87
		c-1.327,0.777-2.802,1.191-4.399,1.191l-0.047-3.979c1.504,0.037,2.735-0.568,3.848-1.813c1.029-1.245,1.758-2.606,2.104-4.086
		c0.063-0.194,0.109-0.326,0.141-0.598c0.03-0.27,0.046-0.55,0.046-0.839c0-0.288-0.017-0.586-0.046-0.894
		c-0.032-0.306-0.079-0.604-0.141-0.893c-0.314-1.335-0.972-2.579-1.973-3.651c-0.922-1.155-2.273-1.894-3.931-2.142L79.508,14.675z
		"/>
	<path fill="#CE2248" d="M113.168,20.63c0-0.036,0-0.072,0-0.108c-0.031-1.479-0.54-2.841-1.526-4.003
		c-0.989-1.245-2.688-1.79-4.858-1.79c-0.376,0-0.814,0.015-1.315,0.085c-0.502,0.107-1.005,0.307-1.506,0.594
		c-0.939,0.47-1.801,1.256-2.584,2.272c-0.782,1.101-1.223,2.644-1.315,4.627c0,2.429,0.656,4.385,1.974,5.63
		c1.315,1.245,2.773,1.939,4.371,2.084c0.095,0.036,0.203,0.054,0.328,0.054s0.252,0,0.377,0c0.65,0,1.011-0.126,1.544-0.378
		c0.531-0.253,1.064-0.597,1.598-1.028c0.251-0.253,0.501-0.515,0.752-0.785c0.25-0.271,0.518-0.568,0.799-0.893v5.304
		c-0.657,0.372-1.386,0.839-2.187,1.164c-0.798,0.325-1.785,0.488-3.164,0.488h-0.612c-2.506,0-4.699-1.11-6.58-3.087
		c-1.637-2.219-2.576-5.15-2.576-8.553c0-3.318,0.898-6.05,2.461-8.283c1.801-2.227,4.457-3.381,7.966-3.381
		c3.078,0,5.634,1.028,7.419,3.001c1.787,1.98,2.438,4.17,2.438,6.661v13.261h-3.801V20.63z"/>
	<path fill="#CE2248" d="M120.729,19.873c0-2.633,0.79-4.851,2.373-6.78c1.583-1.844,3.557-2.828,6.407-2.828
		c0.439,0,0.973,0.063,1.599,0.188c0.627,0.128,1.271,0.353,1.928,0.677c1.17,0.578,2.037,1.384,3.025,2.678
		c0.987,1.186,1.479,2.954,1.479,5.145v14.614h-3.752V20.251c0-0.035,0-0.072,0-0.107c-0.031-1.479-0.4-2.842-1.104-4.004
		c-0.705-1.244-1.873-1.791-3.504-1.791c-1.535,0-2.725,0.5-3.554,1.656c-0.621,1.072-1.123,2.407-1.277,3.922v13.639h-3.62V19.873z
		"/>
	<path fill="#CE2248" d="M160.896,0.818v22.085c0,0.646-0.064,1.229-0.22,2.112c-0.172,0.886-0.431,1.795-0.775,2.733
		c-0.689,1.731-1.756,3.301-3.196,4.674c-1.442,1.199-3.354,1.902-5.493,1.902h-0.376c-3.414-0.181-5.906-1.284-7.467-3.066
		c-1.331-2.025-2.255-4.249-2.536-6.672c-0.031-0.289-0.057-0.587-0.072-0.896c-0.016-0.142-0.022-0.363-0.022-0.652
		c0-0.034,0-0.071,0-0.107c0-0.037-0.017-0.073-0.048-0.11c0-0.034,0-0.071,0-0.107c0-0.072-0.007-0.135-0.022-0.189
		c-0.017-0.054-0.023-0.101-0.023-0.137c0-3,0.665-5.415,1.998-7.158c1.089-1.789,2.568-2.924,4.199-3.611
		c0.501-0.216,0.993-0.379,1.48-0.488c0.485-0.107,0.962-0.163,1.434-0.163c1.849,0,2.946,0.154,3.776,0.46
		c0.83,0.308,1.495,0.659,1.998,1.055v4.434c-0.095-0.066-0.211-0.146-0.354-0.236c-0.141-0.09-0.305-0.19-0.492-0.298
		c-0.597-0.325-1.309-0.631-2.139-0.92c-0.649-0.289-1.459-0.433-2.368-0.433c-0.125,0-0.259,0.008-0.397,0.025
		c-0.143,0.021-0.276,0.028-0.399,0.028c-1.349,0.252-2.58,1.047-3.691,2.299c-1.112,1.335-1.668,3.139-1.668,5.412
		c0,0.036,0.008,0.082,0.023,0.137c0.016,0.053,0.022,0.116,0.022,0.188c0,0.073,0.009,0.135,0.024,0.19
		c0.017,0.054,0.023,0.1,0.023,0.136c0.22,1.957,0.76,3.564,1.621,4.572c0.862,1.011,1.778,1.68,2.751,2.004
		c0.468,0.181,0.939,0.298,1.409,0.353c0.47,0.053,0.894,0.081,1.27,0.081c1.888,0,3.407-0.993,4.316-2.977
		c0.908-1.985,1.363-4.088,1.363-6.794V0.818H160.896z"/>
	<path fill="#CE2248" d="M180.607,20.63c0-0.036,0-0.072,0-0.108c-0.031-1.479-0.541-2.841-1.528-4.003
		c-0.744-1.245-2.444-1.79-4.858-1.79c-0.374,0-0.813,0.015-1.315,0.085c-0.501,0.107-1.002,0.307-1.504,0.594
		c-0.938,0.47-1.748,1.256-2.343,2.272c-0.782,1.101-1.221,2.644-1.315,4.627c0,2.429,0.658,4.385,1.863,5.63
		c1.185,1.245,2.642,1.939,4.24,2.084c0.093,0.036,0.204,0.054,0.329,0.054s0.249,0,0.374,0c0.66,0,1.254-0.126,1.787-0.378
		c0.533-0.253,1.064-0.597,1.598-1.028c0.251-0.253,0.496-0.515,0.681-0.785c0.099-0.271,0.346-0.568,0.629-0.893v5.304
		c-0.58,0.372-1.145,0.839-1.945,1.164c-0.798,0.325-1.933,0.488-3.406,0.488h-0.61c-2.509,0-4.459-1.11-6.338-3.087
		c-1.882-2.219-2.821-5.15-2.821-8.553c0-3.318,0.9-6.05,2.704-8.283c1.801-2.227,4.214-3.381,7.723-3.381
		c3.323,0,5.634,1.028,7.421,3.001c1.785,1.98,2.679,4.17,2.679,6.661v13.261h-4.042V20.63z"/>
	<path fill="#CE2248" d="M190.987,10.968v2.152c0.095-0.144,0.213-0.306,0.354-0.487c0.141-0.125,0.29-0.238,0.446-0.42
		c0.438-0.505,1.003-0.955,1.692-1.353c0.688-0.396,1.504-0.595,2.444-0.595l1.167-0.055v4.086h-0.803
		c-1.509,0.251-2.668,0.807-3.421,1.816c-0.751,0.929-1.254,2.011-1.504,3.165c-0.188,0.795-0.297,1.561-0.329,2.302
		c-0.031,0.739-0.047,1.361-0.047,1.867v10.121h-3.622V10.968H190.987z"/>
</g>
<path fill="#231F20" d="M59.54,45.187c-0.391,0.16-1.158,0.348-2.074,0.348c-2.165,0-3.652-1.31-3.652-3.331
	c0-1.71,1.503-3.233,3.952-3.233c0.676,0,1.368,0.134,1.789,0.306l-0.33,1.231c-0.302-0.121-0.738-0.254-1.399-0.254
	c-1.331,0-2.134,0.923-2.119,1.871c0,1.336,0.939,2.101,2.119,2.101c0.646,0,1.097-0.121,1.458-0.255L59.54,45.187z"/>
<path fill="#231F20" d="M76.675,42.07c0,2.395-1.896,3.464-3.677,3.464c-1.997,0-3.507-1.271-3.507-3.357
	c0-1.897,1.495-3.207,3.628-3.207C75.217,38.97,76.675,40.334,76.675,42.07z M71.317,42.137c0,1.258,0.692,2.207,1.743,2.207
	c1.052,0,1.706-0.922,1.706-2.232c0-0.885-0.428-1.938-1.69-1.938C71.844,40.173,71.317,41.227,71.317,42.137z"/>
<path fill="#231F20" d="M87.324,43.875c0.42,0.229,1.135,0.469,1.798,0.469c0.894,0,1.046-0.294,1.046-0.722
	c0-0.441-0.093-0.668-1.078-0.95c-1.346-0.441-1.945-1.137-1.931-1.657c0-1.148,0.985-2.045,2.767-2.045
	c0.57,0,1.275,0.187,1.696,0.388l-0.361,1.162c-0.315-0.159-0.9-0.372-1.305-0.372c-0.742,0-1.106,0.279-1.106,0.68
	c0,0.395,0.346,0.399,1.291,0.668c1.15,0.428,1.768,1.03,1.783,1.993c0,1.177-1.038,2.046-2.817,2.046
	c-0.887,0-1.601-0.201-2.143-0.468L87.324,43.875z"/>
<path fill="#231F20" d="M102.054,41.055c0-0.749-0.015-1.376-0.06-1.938h1.593l0.076,0.963h0.046c0.358-0.51,1.021-1.11,2.255-1.11
	c0.962,0,1.713,0.481,1.88,1.203h0.004c0.188-0.361,0.488-0.628,0.833-0.815c0.408-0.254,0.873-0.388,1.475-0.388
	c1.219,0,2.45,0.734,2.45,2.579v3.838h-1.803v-3.599c0-0.84-0.423-1.482-1.31-1.482c-0.631,0-1.097,0.403-1.292,0.87
	c-0.046,0.051-0.09,0.118-0.09,0.306v3.905h-1.563v-3.771c0-0.668-0.406-1.311-1.263-1.311c-0.691,0-1.159,0.482-1.32,0.916
	c-0.078,0.005-0.107,0.127-0.107,0.313v3.852h-1.805V41.055z"/>
<path fill="#231F20" d="M124.481,42.592c0.044,1.177,1.05,1.685,2.01,1.685c0.858,0,1.475-0.106,2.032-0.294l0.269,1.137
	c-0.629,0.228-1.502,0.415-2.556,0.415c-2.132,0-3.53-1.31-3.53-3.304c0-1.563,1.233-3.261,3.335-3.261
	c2.391,0,3.157,1.739,3.157,2.927c0,0.307-0.029,0.548-0.06,0.695H124.481z M127.455,41.442c0.015-0.36-0.286-1.351-1.52-1.351
	c-0.898,0-1.381,0.923-1.454,1.351H127.455z"/>
<path fill="#231F20" d="M142.376,37.445v1.672h1.519v1.229h-1.519v2.634c0,0.788,0.241,1.204,0.874,1.204
	c0.178,0,0.344-0.027,0.553-0.081l0.03,1.257c-0.271,0.094-0.583,0.174-1.095,0.174c-0.677,0-1.248-0.214-1.593-0.549
	c-0.393-0.374-0.572-0.962-0.572-1.818v-2.82h-1.052v-1.229h1.052v-1.205L142.376,37.445z"/>
<path fill="#231F20" d="M155.874,37.298c0,0.494-0.406,0.882-1.052,0.882c-0.615,0-1.021-0.388-1.021-0.882
	c0-0.509,0.42-0.896,1.037-0.896C155.468,36.401,155.86,36.789,155.874,37.298z M153.906,45.387v-6.27h1.864v6.27H153.906z"/>
<path fill="#231F20" d="M171.985,45.187c-0.391,0.16-1.159,0.348-2.073,0.348c-2.044,0-3.532-1.31-3.532-3.331
	c0-1.71,1.502-3.233,3.831-3.233c0.677,0,1.368,0.134,1.79,0.306l-0.33,1.231c-0.303-0.121-0.739-0.254-1.4-0.254
	c-1.17,0-2.012,0.923-1.996,1.871c0,1.336,0.977,2.101,1.996,2.101c0.647,0,1.098-0.121,1.458-0.255L171.985,45.187z"/>
<path fill="#231F20" d="M182.354,43.875c0.422,0.229,1.217,0.469,1.88,0.469c0.81,0,1.172-0.294,1.172-0.722
	c0-0.441-0.301-0.668-1.203-0.95c-1.427-0.441-2.028-1.137-2.014-1.657c0-1.148,1.067-2.045,2.767-2.045
	c0.811,0,1.518,0.187,1.938,0.388l-0.361,1.162c-0.314-0.159-0.902-0.372-1.548-0.372c-0.661,0-1.021,0.279-1.021,0.68
	c0,0.395,0.345,0.399,1.276,0.668c1.323,0.428,1.93,1.03,1.944,1.993c0,1.177-1.027,2.046-2.968,2.046
	c-0.885,0-1.682-0.201-2.222-0.468L182.354,43.875z"/>
<g>
	<path fill="#CE2248" d="M23.257,0.281c-12.472,0-22.672,10.2-22.672,22.793c0,12.351,10.2,22.551,22.672,22.551
		c12.472,0,22.672-10.2,22.672-22.551C45.93,10.481,35.729,0.281,23.257,0.281z M23.257,42.176
		c-10.592,0-19.332-8.636-19.332-19.102c0-10.708,8.74-19.411,19.332-19.411c10.708,0,19.343,8.702,19.343,19.411
		C42.6,33.54,33.966,42.176,23.257,42.176z"/>
	<g>
		<g>
			<path fill-rule="evenodd" clip-rule="evenodd" fill="#CE2148" d="M40.485,34.716c-2.902-0.947-3.39-0.784-5.321-2.479
				c-1.078-1.203-1.65-2.088-2.347-3.733c-0.639-1.512-1.195-4.052-1.528-5.695c-0.24-1.36-0.379-2.541-0.604-3.894
				c-0.784-5.258-2.012-10.006-6.657-11.135c-0.862-0.226-2.01-0.304-3.045-0.243c-0.388,0.02-2.045,0.264-2.299,0.484
				c-0.229,0.081,1.609-1.542,3.935-1.691c2.236-0.136,3.507,0.316,4.814,1.139c1.709,0.954,2.876,2.27,3.359,3.612
				c1.139,2.413,1.509,3.874,2.491,8.708c0.197,0.992,0.428,2.079,0.593,2.967c0.506,2.485,0.705,4.951,1.92,7.457
				C37.492,33.148,39.276,33.821,40.485,34.716z"/>
		</g>
		<g>
			<path fill-rule="evenodd" clip-rule="evenodd" fill="#CE2148" d="M39.024,37.057c-2.088-0.19-3.642-0.703-4.941-1.391
				c-3.704-1.851-5.764-4.188-6.586-8.616c-0.359-1.934-0.633-3.418-0.765-5.075c-0.134-1.957-0.009-3.97-0.442-5.612
				c-0.296-1.549-0.976-2.943-2.034-3.855c-1.07-0.943-2.622-1.577-4.584-1.436c-1.149,0.077-2.245,0.583-2.883,1.163
				c-0.375,0.271-1.492,1.728-1.958,2.348c-0.164,0.164,0.826-2.396,2.093-3.592c0.875-0.94,2.522-1.719,4.188-1.798
				c0.853-0.046,2.299,0.265,2.874,0.516c2.076,0.961,3.148,2.647,4.018,4.824c1.169,2.876,1.099,7.32,1.797,10.438
				C31.123,31.919,32.248,33.83,39.024,37.057z"/>
		</g>
		<g>
			<path fill-rule="evenodd" clip-rule="evenodd" fill="#CE2148" d="M18.887,30.894c-0.153,0.069-0.345-0.187-0.46-0.324
				c-0.461-0.55-0.841-1.88-0.623-2.813c0.327-1.396,1.596-2.395,3.083-2.517c2.491-0.212,4.374,1.404,4.993,3.274
				c0.532,1.974-0.093,4.446-0.947,5.763c-1.357,2.095-4.175,3.739-7.742,3.111c-2.97-0.541-4.816-2.454-5.989-4.957
				c-0.8-1.54-1.239-3.619-0.73-6.082c0.4-1.942,1.42-3.444,2.556-4.572c1.269-1.138,3.004-2.15,5.181-2.272
				c2.629-0.14,4.338,1.055,5.019,3.003c0.073,0.208,0.273,0.738,0.216,0.92c-0.028,0.092,0.019,0.081-0.082,0
				c-0.148-0.121-0.37-0.381-0.107-0.107c-1.008-1.05-2.594-2.014-4.695-1.731c-1.976,0.28-3.17,1.524-3.828,2.895
				c-0.387,0.947-0.629,1.938-0.568,2.977c0.123,2.077,1.194,3.55,2.57,4.518c0.74,0.454,2.241,0.979,3.396,0.454
				c0.316-0.008,0.575-0.221,0.785-0.564c0.477-0.774,0.638-2.429-0.459-2.785c-0.516-0.164-1.188,0.077-1.408,0.405
				C18.844,29.792,18.759,30.439,18.887,30.894z"/>
		</g>
	</g>
</g>
</svg>
